<svg width="2735" height="804" viewBox="0 0 2735 804" fill="none" xmlns="http://www.w3.org/2000/svg">
<path d="M1148.5 222.482H1179.02V253H1148.5V222.482ZM1148.5 191.963H1179.02V222.482H1148.5V191.963ZM1148.5 161.445H1179.02V191.963H1148.5V161.445ZM1148.5 130.927H1179.02V161.445H1148.5V130.927ZM1179.02 100.409H1209.54V130.927H1179.02V100.409ZM1209.54 130.927H1240.05V161.445H1209.54V130.927ZM1209.54 161.445H1240.05V191.963H1209.54V161.445ZM1209.54 191.963H1240.05V222.482H1209.54V191.963ZM1209.54 222.482H1240.05V253H1209.54V222.482ZM1179.02 161.445H1209.54V191.963H1179.02V161.445ZM1270.45 130.927H1300.97V161.445H1270.45V130.927ZM1270.45 161.445H1300.97V191.963H1270.45V161.445ZM1270.45 191.963H1300.97V222.482H1270.45V191.963ZM1300.97 222.482H1331.49V253H1300.97V222.482ZM1331.49 222.482H1362.01V253H1331.49V222.482ZM1331.49 191.963H1362.01V222.482H1331.49V191.963ZM1331.49 161.445H1362.01V191.963H1331.49V161.445ZM1331.49 130.927H1362.01V161.445H1331.49V130.927ZM1453.44 100.409H1483.96V130.927H1453.44V100.409ZM1453.44 130.927H1483.96V161.445H1453.44V130.927ZM1453.44 161.445H1483.96V191.963H1453.44V161.445ZM1453.44 191.963H1483.96V222.482H1453.44V191.963ZM1453.44 222.482H1483.96V253H1453.44V222.482ZM1422.93 130.927H1453.44V161.445H1422.93V130.927ZM1392.41 161.445H1422.93V191.963H1392.41V161.445ZM1392.41 191.963H1422.93V222.482H1392.41V191.963ZM1422.93 222.482H1453.44V253H1422.93V222.482ZM1514.36 222.482H1544.88V253H1514.36V222.482ZM1514.36 191.963H1544.88V222.482H1514.36V191.963ZM1514.36 161.445H1544.88V191.963H1514.36V161.445ZM1514.36 100.409H1544.88V130.927H1514.36V100.409ZM1575.34 161.445H1605.86V191.963H1575.34V161.445ZM1575.34 191.963H1605.86V222.482H1575.34V191.963ZM1605.86 222.482H1636.38V253H1605.86V222.482ZM1636.38 191.963H1666.89V222.482H1636.38V191.963ZM1636.38 161.445H1666.89V191.963H1636.38V161.445ZM1605.86 130.927H1636.38V161.445H1605.86V130.927ZM1788.76 100.409H1819.28V130.927H1788.76V100.409ZM1788.76 130.927H1819.28V161.445H1788.76V130.927ZM1788.76 161.445H1819.28V191.963H1788.76V161.445ZM1788.76 191.963H1819.28V222.482H1788.76V191.963ZM1788.76 222.482H1819.28V253H1788.76V222.482ZM1819.28 222.482H1849.79V253H1819.28V222.482ZM1849.79 222.482H1880.31V253H1849.79V222.482ZM1849.79 191.963H1880.31V222.482H1849.79V191.963ZM1849.79 161.445H1880.31V191.963H1849.79V161.445ZM1849.79 130.927H1880.31V161.445H1849.79V130.927ZM1849.79 100.409H1880.31V130.927H1849.79V100.409ZM1910.71 100.409H1941.23V130.927H1910.71V100.409ZM1910.71 130.927H1941.23V161.445H1910.71V130.927ZM1910.71 161.445H1941.23V191.963H1910.71V161.445ZM1910.71 191.963H1941.23V222.482H1910.71V191.963ZM1910.71 222.482H1941.23V253H1910.71V222.482ZM1941.23 222.482H1971.75V253H1941.23V222.482ZM1941.23 130.927H1971.75V161.445H1941.23V130.927ZM2002.18 222.482H2032.7V253H2002.18V222.482ZM2002.18 191.963H2032.7V222.482H2002.18V191.963ZM2002.18 161.445H2032.7V191.963H2002.18V161.445ZM2002.18 100.409H2032.7V130.927H2002.18V100.409ZM2063.15 100.409H2093.67V130.927H2063.15V100.409ZM2063.15 130.927H2093.67V161.445H2063.15V130.927ZM2063.15 161.445H2093.67V191.963H2063.15V161.445ZM2063.15 191.963H2093.67V222.482H2063.15V191.963ZM2063.15 222.482H2093.67V253H2063.15V222.482ZM2124.13 222.482H2154.65V253H2124.13V222.482ZM2124.13 191.963H2154.65V222.482H2124.13V191.963ZM2124.13 161.445H2154.65V191.963H2124.13V161.445ZM2124.13 100.409H2154.65V130.927H2124.13V100.409ZM2185.11 100.409H2215.63V130.927H2185.11V100.409ZM2185.11 130.927H2215.63V161.445H2185.11V130.927ZM2185.11 161.445H2215.63V191.963H2185.11V161.445ZM2185.11 191.963H2215.63V222.482H2185.11V191.963ZM2185.11 222.482H2215.63V253H2185.11V222.482ZM2215.63 222.482H2246.14V253H2215.63V222.482ZM2215.63 130.927H2246.14V161.445H2215.63V130.927ZM2276.57 130.927H2307.09V161.445H2276.57V130.927ZM2276.57 161.445H2307.09V191.963H2276.57V161.445ZM2276.57 191.963H2307.09V222.482H2276.57V191.963ZM2337.61 130.927H2368.13V161.445H2337.61V130.927ZM2337.61 161.445H2368.13V191.963H2337.61V161.445ZM2337.61 191.963H2368.13V222.482H2337.61V191.963ZM2307.09 222.482H2337.61V253H2307.09V222.482ZM2276.57 253H2307.09V283.518H2276.57V253ZM1148.5 351.927H1179.02V382.445H1148.5V351.927ZM1148.5 382.445H1179.02V412.963H1148.5V382.445ZM1148.5 412.963H1179.02V443.482H1148.5V412.963ZM1148.5 443.482H1179.02V474H1148.5V443.482ZM1179.02 321.409H1209.54V351.927H1179.02V321.409ZM1179.02 382.445H1209.54V412.963H1179.02V382.445ZM1239.97 382.445H1270.48V412.963H1239.97V382.445ZM1239.97 412.963H1270.48V443.482H1239.97V412.963ZM1270.48 443.482H1301V474H1270.48V443.482ZM1301 412.963H1331.52V443.482H1301V412.963ZM1301 382.445H1331.52V412.963H1301V382.445ZM1270.48 351.927H1301V382.445H1270.48V351.927ZM1361.92 351.927H1392.44V382.445H1361.92V351.927ZM1361.92 382.445H1392.44V412.963H1361.92V382.445ZM1361.92 412.963H1392.44V443.482H1361.92V412.963ZM1361.92 443.482H1392.44V474H1361.92V443.482ZM1392.44 351.927H1422.96V382.445H1392.44V351.927ZM1544.85 443.482H1575.37V474H1544.85V443.482ZM1544.85 412.963H1575.37V443.482H1544.85V412.963ZM1544.85 382.445H1575.37V412.963H1544.85V382.445ZM1544.85 351.927H1575.37V382.445H1544.85V351.927ZM1544.85 321.409H1575.37V351.927H1544.85V321.409ZM1575.37 321.409H1605.89V351.927H1575.37V321.409ZM1605.89 321.409H1636.41V351.927H1605.89V321.409ZM1605.89 351.927H1636.41V382.445H1605.89V351.927ZM1575.37 382.445H1605.89V412.963H1575.37V382.445ZM1605.89 412.963H1636.41V443.482H1605.89V412.963ZM1605.89 443.482H1636.41V474H1605.89V443.482ZM1697.32 351.927H1727.84V382.445H1697.32V351.927ZM1727.84 382.445H1758.36V412.963H1727.84V382.445ZM1666.8 382.445H1697.32V412.963H1666.8V382.445ZM1727.84 412.963H1758.36V443.482H1727.84V412.963ZM1697.32 412.963H1727.84V443.482H1697.32V412.963ZM1666.8 412.963H1697.32V443.482H1666.8V412.963ZM1666.8 443.482H1697.32V474H1666.8V443.482ZM1697.32 474H1727.84V504.518H1697.32V474ZM1819.28 351.927H1849.79V382.445H1819.28V351.927ZM1788.76 382.445H1819.28V412.963H1788.76V382.445ZM1788.76 412.963H1819.28V443.482H1788.76V412.963ZM1819.28 443.482H1849.79V474H1819.28V443.482ZM1849.79 351.927H1880.31V382.445H1849.79V351.927ZM1849.79 443.482H1880.31V474H1849.79V443.482ZM1910.71 382.445H1941.23V412.963H1910.71V382.445ZM1910.71 412.963H1941.23V443.482H1910.71V412.963ZM1941.23 443.482H1971.75V474H1941.23V443.482ZM1971.75 412.963H2002.27V443.482H1971.75V412.963ZM1971.75 382.445H2002.27V412.963H1971.75V382.445ZM1941.23 351.927H1971.75V382.445H1941.23V351.927ZM2093.7 351.927H2124.22V382.445H2093.7V351.927ZM2093.7 382.445H2124.22V412.963H2093.7V382.445ZM2093.7 412.963H2124.22V443.482H2093.7V412.963ZM2093.7 443.482H2124.22V474H2093.7V443.482ZM2093.7 474H2124.22V504.518H2093.7V474ZM2063.18 474H2093.7V504.518H2063.18V474ZM2032.67 474H2063.18V504.518H2032.67V474ZM2063.18 351.927H2093.7V382.445H2063.18V351.927ZM2032.67 382.445H2063.18V412.963H2032.67V382.445ZM2032.67 412.963H2063.18V443.482H2032.67V412.963ZM2154.62 443.482H2185.14V474H2154.62V443.482ZM2154.62 412.963H2185.14V443.482H2154.62V412.963ZM2154.62 382.445H2185.14V412.963H2154.62V382.445ZM2154.62 351.927H2185.14V382.445H2154.62V351.927ZM2185.14 351.927H2215.66V382.445H2185.14V351.927ZM2215.66 382.445H2246.17V412.963H2215.66V382.445ZM2215.66 412.963H2246.17V443.482H2215.66V412.963ZM2215.66 443.482H2246.17V474H2215.66V443.482ZM2276.57 443.482H2307.09V474H2276.57V443.482ZM2276.57 412.963H2307.09V443.482H2276.57V412.963ZM2276.57 382.445H2307.09V412.963H2276.57V382.445ZM2276.57 321.409H2307.09V351.927H2276.57V321.409ZM2337.55 321.409H2368.07V351.927H2337.55V321.409ZM2337.55 351.927H2368.07V382.445H2337.55V351.927ZM2337.55 382.445H2368.07V412.963H2337.55V382.445ZM2337.55 412.963H2368.07V443.482H2337.55V412.963ZM2337.55 443.482H2368.07V474H2337.55V443.482ZM2368.07 443.482H2398.59V474H2368.07V443.482ZM2368.07 351.927H2398.59V382.445H2368.07V351.927ZM2429.02 443.482H2459.53V474H2429.02V443.482ZM2429.02 412.963H2459.53V443.482H2429.02V412.963ZM2429.02 382.445H2459.53V412.963H2429.02V382.445ZM2429.02 321.409H2459.53V351.927H2429.02V321.409ZM2489.99 382.445H2520.51V412.963H2489.99V382.445ZM2489.99 412.963H2520.51V443.482H2489.99V412.963ZM2520.51 443.482H2551.03V474H2520.51V443.482ZM2551.03 412.963H2581.55V443.482H2551.03V412.963ZM2551.03 382.445H2581.55V412.963H2551.03V382.445ZM2520.51 351.927H2551.03V382.445H2520.51V351.927ZM2611.95 443.482H2642.47V474H2611.95V443.482ZM2611.95 412.963H2642.47V443.482H2611.95V412.963ZM2611.95 382.445H2642.47V412.963H2611.95V382.445ZM2611.95 351.927H2642.47V382.445H2611.95V351.927ZM2642.47 351.927H2672.98V382.445H2642.47V351.927ZM2672.98 382.445H2703.5V412.963H2672.98V382.445ZM2672.98 412.963H2703.5V443.482H2672.98V412.963ZM2672.98 443.482H2703.5V474H2672.98V443.482ZM1179.02 663.482H1209.54V694H1179.02V663.482ZM1209.54 663.482H1240.05V694H1209.54V663.482ZM1240.05 663.482H1270.57V694H1240.05V663.482ZM1240.05 541.409H1270.57V571.927H1240.05V541.409ZM1209.54 541.409H1240.05V571.927H1209.54V541.409ZM1179.02 541.409H1209.54V571.927H1179.02V541.409ZM1179.02 602.445H1209.54V632.963H1179.02V602.445ZM1209.54 602.445H1240.05V632.963H1209.54V602.445ZM1148.5 571.927H1179.02V602.445H1148.5V571.927ZM1148.5 632.963H1179.02V663.482H1148.5V632.963ZM1209.54 510.89H1240.05V541.409H1209.54V510.89ZM1209.54 571.927H1240.05V602.445H1209.54V571.927ZM1209.54 632.963H1240.05V663.482H1209.54V632.963ZM1240.05 602.445H1270.57V632.963H1240.05V602.445ZM1209.54 694H1240.05V724.518H1209.54V694ZM1270.57 663.482H1301.09V694H1270.57V663.482ZM1270.57 541.409H1301.09V571.927H1270.57V541.409ZM1484.26 571.927H1514.78V602.445H1484.26V571.927ZM1484.26 602.445H1514.78V632.963H1484.26V602.445ZM1484.26 632.963H1514.78V663.482H1484.26V632.963ZM1484.26 663.482H1514.78V694H1484.26V663.482ZM1453.74 571.927H1484.26V602.445H1453.74V571.927ZM1453.74 663.482H1484.26V694H1453.74V663.482ZM1423.22 602.445H1453.74V632.963H1423.22V602.445ZM1423.22 632.963H1453.74V663.482H1423.22V632.963ZM1545.18 663.482H1575.7V694H1545.18V663.482ZM1545.18 632.963H1575.7V663.482H1545.18V632.963ZM1545.18 602.445H1575.7V632.963H1545.18V602.445ZM1545.18 571.927H1575.7V602.445H1545.18V571.927ZM1575.7 571.927H1606.21V602.445H1575.7V571.927ZM1606.21 602.445H1636.73V632.963H1606.21V602.445ZM1606.21 632.963H1636.73V663.482H1606.21V632.963ZM1606.21 663.482H1636.73V694H1606.21V663.482ZM1728.17 571.927H1758.69V602.445H1728.17V571.927ZM1728.17 602.445H1758.69V632.963H1728.17V602.445ZM1728.17 632.963H1758.69V663.482H1728.17V632.963ZM1728.17 663.482H1758.69V694H1728.17V663.482ZM1697.65 571.927H1728.17V602.445H1697.65V571.927ZM1697.65 663.482H1728.17V694H1697.65V663.482ZM1667.13 602.445H1697.65V632.963H1667.13V602.445ZM1667.13 632.963H1697.65V663.482H1667.13V632.963ZM1789.09 541.409H1819.6V571.927H1789.09V541.409ZM1789.09 571.927H1819.6V602.445H1789.09V571.927ZM1789.09 602.445H1819.6V632.963H1789.09V602.445ZM1789.09 632.963H1819.6V663.482H1789.09V632.963ZM1789.09 663.482H1819.6V694H1789.09V663.482ZM1850.06 571.927H1880.58V602.445H1850.06V571.927ZM1850.06 602.445H1880.58V632.963H1850.06V602.445ZM1850.06 632.963H1880.58V663.482H1850.06V632.963ZM1911.1 571.927H1941.62V602.445H1911.1V571.927ZM1911.1 602.445H1941.62V632.963H1911.1V602.445ZM1911.1 632.963H1941.62V663.482H1911.1V632.963ZM1880.58 663.482H1911.1V694H1880.58V663.482ZM1850.06 694H1880.58V724.518H1850.06V694ZM2033.05 571.927H2063.57V602.445H2033.05V571.927ZM2002.54 571.927H2033.05V602.445H2002.54V571.927ZM1972.02 602.445H2002.54V632.963H1972.02V602.445ZM2033.05 632.963H2063.57V663.482H2033.05V632.963ZM2033.05 663.482H2063.57V694H2033.05V663.482ZM1972.02 663.482H2002.54V694H1972.02V663.482ZM1972.02 571.927H2002.54V602.445H1972.02V571.927ZM2002.54 663.482H2033.05V694H2002.54V663.482ZM2093.97 663.482H2124.49V694H2093.97V663.482ZM2093.97 632.963H2124.49V663.482H2093.97V632.963ZM2093.97 602.445H2124.49V632.963H2093.97V602.445ZM2093.97 541.409H2124.49V571.927H2093.97V541.409ZM2215.98 571.927H2246.5V602.445H2215.98V571.927ZM2185.47 571.927H2215.98V602.445H2185.47V571.927ZM2154.95 602.445H2185.47V632.963H2154.95V602.445ZM2215.98 632.963H2246.5V663.482H2215.98V632.963ZM2215.98 663.482H2246.5V694H2215.98V663.482ZM2154.95 663.482H2185.47V694H2154.95V663.482ZM2154.95 571.927H2185.47V602.445H2154.95V571.927ZM2185.47 663.482H2215.98V694H2185.47V663.482Z" fill="white"/>
<g filter="url(#filter0_i_2839_2034)">
<path d="M410.5 68.1299V401H279.5V275H240.5V401H110.5V68.1074L177.607 1H343.37L410.5 68.1299ZM241.5 207H280.5V110H241.5V207Z" fill="#7C93FB"/>
</g>
<g filter="url(#filter1_i_2839_2034)">
<path d="M1000.5 356.129L1000.5 619.133L930.634 689L700.5 689L700.5 527.262L787.763 440L884.5 440L884.5 400L755.499 400L752.988 397.489L752.988 289L933.371 289L1000.5 356.129ZM795.5 618L834.5 618L834.5 520L795.5 520L795.5 618ZM851.5 618L890.5 618L890.5 520L851.5 520L851.5 618Z" fill="#7C93FB"/>
</g>
<g filter="url(#filter2_i_2839_2034)">
<path d="M279.5 736.87L279.5 404L410.5 404L410.5 689L449.5 689L449.5 404L579.5 404L579.5 736.893L512.392 804L346.63 804L279.5 736.87Z" fill="#7C93FB"/>
</g>
<g filter="url(#filter3_i_2839_2034)">
<path d="M749.5 67.1299V152.842L683.499 218.843L749.5 284.844V400H618.5V274H579.5V400H449.5V67.1074L516.608 0H682.37L749.5 67.1299ZM569.5 175.962L659.5 124L569.5 72.0381V175.962Z" fill="#7C93FB"/>
</g>
<g filter="url(#filter4_di_2839_2034)">
<path d="M45 416.5C242.496 416.501 232.504 -323.001 336.504 392.999C419.704 965.799 489.049 652.263 533.071 416.5C586.567 130.001 587.279 131 674.071 416.5C765.575 717.5 891 392.999 1041 392.999" stroke="white" stroke-width="30" stroke-linecap="round"/>
</g>
<defs>
<filter id="filter0_i_2839_2034" x="110.5" y="1" width="302" height="402" filterUnits="userSpaceOnUse" color-interpolation-filters="sRGB">
<feFlood flood-opacity="0" result="BackgroundImageFix"/>
<feBlend mode="normal" in="SourceGraphic" in2="BackgroundImageFix" result="shape"/>
<feColorMatrix in="SourceAlpha" type="matrix" values="0 0 0 0 0 0 0 0 0 0 0 0 0 0 0 0 0 0 127 0" result="hardAlpha"/>
<feOffset dx="2" dy="2"/>
<feGaussianBlur stdDeviation="15.9"/>
<feComposite in2="hardAlpha" operator="arithmetic" k2="-1" k3="1"/>
<feColorMatrix type="matrix" values="0 0 0 0 0.829909 0 0 0 0 0.837125 0 0 0 0 1 0 0 0 1 0"/>
<feBlend mode="normal" in2="shape" result="effect1_innerShadow_2839_2034"/>
</filter>
<filter id="filter1_i_2839_2034" x="700.5" y="289" width="302" height="402" filterUnits="userSpaceOnUse" color-interpolation-filters="sRGB">
<feFlood flood-opacity="0" result="BackgroundImageFix"/>
<feBlend mode="normal" in="SourceGraphic" in2="BackgroundImageFix" result="shape"/>
<feColorMatrix in="SourceAlpha" type="matrix" values="0 0 0 0 0 0 0 0 0 0 0 0 0 0 0 0 0 0 127 0" result="hardAlpha"/>
<feOffset dx="2" dy="2"/>
<feGaussianBlur stdDeviation="15.9"/>
<feComposite in2="hardAlpha" operator="arithmetic" k2="-1" k3="1"/>
<feColorMatrix type="matrix" values="0 0 0 0 0.829909 0 0 0 0 0.837125 0 0 0 0 1 0 0 0 1 0"/>
<feBlend mode="normal" in2="shape" result="effect1_innerShadow_2839_2034"/>
</filter>
<filter id="filter2_i_2839_2034" x="279.5" y="404" width="302" height="402" filterUnits="userSpaceOnUse" color-interpolation-filters="sRGB">
<feFlood flood-opacity="0" result="BackgroundImageFix"/>
<feBlend mode="normal" in="SourceGraphic" in2="BackgroundImageFix" result="shape"/>
<feColorMatrix in="SourceAlpha" type="matrix" values="0 0 0 0 0 0 0 0 0 0 0 0 0 0 0 0 0 0 127 0" result="hardAlpha"/>
<feOffset dx="2" dy="2"/>
<feGaussianBlur stdDeviation="15.9"/>
<feComposite in2="hardAlpha" operator="arithmetic" k2="-1" k3="1"/>
<feColorMatrix type="matrix" values="0 0 0 0 0.829909 0 0 0 0 0.837125 0 0 0 0 1 0 0 0 1 0"/>
<feBlend mode="normal" in2="shape" result="effect1_innerShadow_2839_2034"/>
</filter>
<filter id="filter3_i_2839_2034" x="449.5" y="0" width="302" height="402" filterUnits="userSpaceOnUse" color-interpolation-filters="sRGB">
<feFlood flood-opacity="0" result="BackgroundImageFix"/>
<feBlend mode="normal" in="SourceGraphic" in2="BackgroundImageFix" result="shape"/>
<feColorMatrix in="SourceAlpha" type="matrix" values="0 0 0 0 0 0 0 0 0 0 0 0 0 0 0 0 0 0 127 0" result="hardAlpha"/>
<feOffset dx="2" dy="2"/>
<feGaussianBlur stdDeviation="15.9"/>
<feComposite in2="hardAlpha" operator="arithmetic" k2="-1" k3="1"/>
<feColorMatrix type="matrix" values="0 0 0 0 0.829909 0 0 0 0 0.837125 0 0 0 0 1 0 0 0 1 0"/>
<feBlend mode="normal" in2="shape" result="effect1_innerShadow_2839_2034"/>
</filter>
<filter id="filter4_di_2839_2034" x="0" y="35.7227" width="1086" height="726.39" filterUnits="userSpaceOnUse" color-interpolation-filters="sRGB">
<feFlood flood-opacity="0" result="BackgroundImageFix"/>
<feColorMatrix in="SourceAlpha" type="matrix" values="0 0 0 0 0 0 0 0 0 0 0 0 0 0 0 0 0 0 127 0" result="hardAlpha"/>
<feOffset/>
<feGaussianBlur stdDeviation="15"/>
<feComposite in2="hardAlpha" operator="out"/>
<feColorMatrix type="matrix" values="0 0 0 0 0 0 0 0 0 0 0 0 0 0 0 0 0 0 0.35 0"/>
<feBlend mode="normal" in2="BackgroundImageFix" result="effect1_dropShadow_2839_2034"/>
<feBlend mode="normal" in="SourceGraphic" in2="effect1_dropShadow_2839_2034" result="shape"/>
<feColorMatrix in="SourceAlpha" type="matrix" values="0 0 0 0 0 0 0 0 0 0 0 0 0 0 0 0 0 0 127 0" result="hardAlpha"/>
<feOffset/>
<feGaussianBlur stdDeviation="5"/>
<feComposite in2="hardAlpha" operator="arithmetic" k2="-1" k3="1"/>
<feColorMatrix type="matrix" values="0 0 0 0 0.315472 0 0 0 0 0.381994 0 0 0 0 0.720647 0 0 0 1 0"/>
<feBlend mode="normal" in2="shape" result="effect2_innerShadow_2839_2034"/>
</filter>
</defs>
</svg>
