<svg width="1555" height="625" viewBox="0 0 1555 625" fill="none" xmlns="http://www.w3.org/2000/svg">
<path d="M0 122.073H30.5183V152.591H0V122.073ZM0 91.5547H30.5183V122.073H0V91.5547ZM0 61.0364H30.5183V91.5547H0V61.0364ZM0 30.5182H30.5183V61.0364H0V30.5182ZM30.5183 -0.000123844H61.0366V30.5182H30.5183V-0.000123844ZM61.0366 30.5182H91.5549V61.0364H61.0366V30.5182ZM61.0366 61.0364H91.5549V91.5547H61.0366V61.0364ZM61.0366 91.5547H91.5549V122.073H61.0366V91.5547ZM61.0366 122.073H91.5549V152.591H61.0366V122.073ZM30.5183 61.0364H61.0366V91.5547H30.5183V61.0364ZM121.954 30.5182H152.472V61.0364H121.954V30.5182ZM121.954 61.0364H152.472V91.5547H121.954V61.0364ZM121.954 91.5547H152.472V122.073H121.954V91.5547ZM152.472 122.073H182.991V152.591H152.472V122.073ZM182.991 122.073H213.509V152.591H182.991V122.073ZM182.991 91.5547H213.509V122.073H182.991V91.5547ZM182.991 61.0364H213.509V91.5547H182.991V61.0364ZM182.991 30.5182H213.509V61.0364H182.991V30.5182ZM304.944 -0.000123844H335.463V30.5182H304.944V-0.000123844ZM304.944 30.5182H335.463V61.0364H304.944V30.5182ZM304.944 61.0364H335.463V91.5547H304.944V61.0364ZM304.944 91.5547H335.463V122.073H304.944V91.5547ZM304.944 122.073H335.463V152.591H304.944V122.073ZM274.426 30.5182H304.944V61.0364H274.426V30.5182ZM243.908 61.0364H274.426V91.5547H243.908V61.0364ZM243.908 91.5547H274.426V122.073H243.908V91.5547ZM274.426 122.073H304.944V152.591H274.426V122.073ZM365.862 122.073H396.38V152.591H365.862V122.073ZM365.862 91.5547H396.38V122.073H365.862V91.5547ZM365.862 61.0364H396.38V91.5547H365.862V61.0364ZM365.862 -0.000123844H396.38V30.5182H365.862V-0.000123844ZM426.839 61.0364H457.357V91.5547H426.839V61.0364ZM426.839 91.5547H457.357V122.073H426.839V91.5547ZM457.357 122.073H487.875V152.591H457.357V122.073ZM487.875 91.5547H518.394V122.073H487.875V91.5547ZM487.875 61.0364H518.394V91.5547H487.875V61.0364ZM457.357 30.5182H487.875V61.0364H457.357V30.5182ZM640.258 -0.000123844H670.776V30.5182H640.258V-0.000123844ZM640.258 30.5182H670.776V61.0364H640.258V30.5182ZM640.258 61.0364H670.776V91.5547H640.258V61.0364ZM640.258 91.5547H670.776V122.073H640.258V91.5547ZM640.258 122.073H670.776V152.591H640.258V122.073ZM670.776 122.073H701.295V152.591H670.776V122.073ZM701.295 122.073H731.813V152.591H701.295V122.073ZM701.295 91.5547H731.813V122.073H701.295V91.5547ZM701.295 61.0364H731.813V91.5547H701.295V61.0364ZM701.295 30.5182H731.813V61.0364H701.295V30.5182ZM701.295 -0.000123844H731.813V30.5182H701.295V-0.000123844ZM762.212 -0.000123844H792.73V30.5182H762.212V-0.000123844ZM762.212 30.5182H792.73V61.0364H762.212V30.5182ZM762.212 61.0364H792.73V91.5547H762.212V61.0364ZM762.212 91.5547H792.73V122.073H762.212V91.5547ZM762.212 122.073H792.73V152.591H762.212V122.073ZM792.73 122.073H823.249V152.591H792.73V122.073ZM792.73 30.5182H823.249V61.0364H792.73V30.5182ZM853.678 122.073H884.196V152.591H853.678V122.073ZM853.678 91.5547H884.196V122.073H853.678V91.5547ZM853.678 61.0364H884.196V91.5547H853.678V61.0364ZM853.678 -0.000123844H884.196V30.5182H853.678V-0.000123844ZM914.654 -0.000123844H945.173V30.5182H914.654V-0.000123844ZM914.654 30.5182H945.173V61.0364H914.654V30.5182ZM914.654 61.0364H945.173V91.5547H914.654V61.0364ZM914.654 91.5547H945.173V122.073H914.654V91.5547ZM914.654 122.073H945.173V152.591H914.654V122.073ZM975.631 122.073H1006.15V152.591H975.631V122.073ZM975.631 91.5547H1006.15V122.073H975.631V91.5547ZM975.631 61.0364H1006.15V91.5547H975.631V61.0364ZM975.631 -0.000123844H1006.15V30.5182H975.631V-0.000123844ZM1036.61 -0.000123844H1067.13V30.5182H1036.61V-0.000123844ZM1036.61 30.5182H1067.13V61.0364H1036.61V30.5182ZM1036.61 61.0364H1067.13V91.5547H1036.61V61.0364ZM1036.61 91.5547H1067.13V122.073H1036.61V91.5547ZM1036.61 122.073H1067.13V152.591H1036.61V122.073ZM1067.13 122.073H1097.64V152.591H1067.13V122.073ZM1067.13 30.5182H1097.64V61.0364H1067.13V30.5182ZM1128.07 30.5182H1158.59V61.0364H1128.07V30.5182ZM1128.07 61.0364H1158.59V91.5547H1128.07V61.0364ZM1128.07 91.5547H1158.59V122.073H1128.07V91.5547ZM1189.11 30.5182H1219.63V61.0364H1189.11V30.5182ZM1189.11 61.0364H1219.63V91.5547H1189.11V61.0364ZM1189.11 91.5547H1219.63V122.073H1189.11V91.5547ZM1158.59 122.073H1189.11V152.591H1158.59V122.073ZM1128.07 152.591H1158.59V183.11H1128.07V152.591ZM0 251.518H30.5183V282.036H0V251.518ZM0 282.036H30.5183V312.555H0V282.036ZM0 312.555H30.5183V343.073H0V312.555ZM0 343.073H30.5183V373.591H0V343.073ZM30.5183 221H61.0366V251.518H30.5183V221ZM30.5183 282.036H61.0366V312.555H30.5183V282.036ZM91.4654 282.036H121.984V312.555H91.4654V282.036ZM91.4654 312.555H121.984V343.073H91.4654V312.555ZM121.984 343.073H152.502V373.591H121.984V343.073ZM152.502 312.555H183.02V343.073H152.502V312.555ZM152.502 282.036H183.02V312.555H152.502V282.036ZM121.984 251.518H152.502V282.036H121.984V251.518ZM213.419 251.518H243.938V282.036H213.419V251.518ZM213.419 282.036H243.938V312.555H213.419V282.036ZM213.419 312.555H243.938V343.073H213.419V312.555ZM213.419 343.073H243.938V373.591H213.419V343.073ZM243.938 251.518H274.456V282.036H243.938V251.518ZM396.35 343.073H426.869V373.591H396.35V343.073ZM396.35 312.555H426.869V343.073H396.35V312.555ZM396.35 282.036H426.869V312.555H396.35V282.036ZM396.35 251.518H426.869V282.036H396.35V251.518ZM396.35 221H426.869V251.518H396.35V221ZM426.869 221H457.387V251.518H426.869V221ZM457.387 221H487.905V251.518H457.387V221ZM457.387 251.518H487.905V282.036H457.387V251.518ZM426.869 282.036H457.387V312.555H426.869V282.036ZM457.387 312.555H487.905V343.073H457.387V312.555ZM457.387 343.073H487.905V373.591H457.387V343.073ZM548.822 251.518H579.341V282.036H548.822V251.518ZM579.341 282.036H609.859V312.555H579.341V282.036ZM518.304 282.036H548.822V312.555H518.304V282.036ZM579.341 312.555H609.859V343.073H579.341V312.555ZM548.822 312.555H579.341V343.073H548.822V312.555ZM518.304 312.555H548.822V343.073H518.304V312.555ZM518.304 343.073H548.822V373.591H518.304V343.073ZM548.822 373.591H579.341V404.11H548.822V373.591ZM670.776 251.518H701.295V282.036H670.776V251.518ZM640.258 282.036H670.776V312.555H640.258V282.036ZM640.258 312.555H670.776V343.073H640.258V312.555ZM670.776 343.073H701.295V373.591H670.776V343.073ZM701.295 251.518H731.813V282.036H701.295V251.518ZM701.295 343.073H731.813V373.591H701.295V343.073ZM762.212 282.036H792.73V312.555H762.212V282.036ZM762.212 312.555H792.73V343.073H762.212V312.555ZM792.73 343.073H823.249V373.591H792.73V343.073ZM823.249 312.555H853.767V343.073H823.249V312.555ZM823.249 282.036H853.767V312.555H823.249V282.036ZM792.73 251.518H823.249V282.036H792.73V251.518ZM945.203 251.518H975.721V282.036H945.203V251.518ZM945.203 282.036H975.721V312.555H945.203V282.036ZM945.203 312.555H975.721V343.073H945.203V312.555ZM945.203 343.073H975.721V373.591H945.203V343.073ZM945.203 373.591H975.721V404.11H945.203V373.591ZM914.684 373.591H945.203V404.11H914.684V373.591ZM884.166 373.591H914.684V404.11H884.166V373.591ZM914.684 251.518H945.203V282.036H914.684V251.518ZM884.166 282.036H914.684V312.555H884.166V282.036ZM884.166 312.555H914.684V343.073H884.166V312.555ZM1006.12 343.073H1036.64V373.591H1006.12V343.073ZM1006.12 312.555H1036.64V343.073H1006.12V312.555ZM1006.12 282.036H1036.64V312.555H1006.12V282.036ZM1006.12 251.518H1036.64V282.036H1006.12V251.518ZM1036.64 251.518H1067.16V282.036H1036.64V251.518ZM1067.16 282.036H1097.67V312.555H1067.16V282.036ZM1067.16 312.555H1097.67V343.073H1067.16V312.555ZM1067.16 343.073H1097.67V373.591H1067.16V343.073ZM1128.07 343.073H1158.59V373.591H1128.07V343.073ZM1128.07 312.555H1158.59V343.073H1128.07V312.555ZM1128.07 282.036H1158.59V312.555H1128.07V282.036ZM1128.07 221H1158.59V251.518H1128.07V221ZM1189.05 221H1219.57V251.518H1189.05V221ZM1189.05 251.518H1219.57V282.036H1189.05V251.518ZM1189.05 282.036H1219.57V312.555H1189.05V282.036ZM1189.05 312.555H1219.57V343.073H1189.05V312.555ZM1189.05 343.073H1219.57V373.591H1189.05V343.073ZM1219.57 343.073H1250.09V373.591H1219.57V343.073ZM1219.57 251.518H1250.09V282.036H1219.57V251.518ZM1280.52 343.073H1311.03V373.591H1280.52V343.073ZM1280.52 312.555H1311.03V343.073H1280.52V312.555ZM1280.52 282.036H1311.03V312.555H1280.52V282.036ZM1280.52 221H1311.03V251.518H1280.52V221ZM1341.49 282.036H1372.01V312.555H1341.49V282.036ZM1341.49 312.555H1372.01V343.073H1341.49V312.555ZM1372.01 343.073H1402.53V373.591H1372.01V343.073ZM1402.53 312.555H1433.05V343.073H1402.53V312.555ZM1402.53 282.036H1433.05V312.555H1402.53V282.036ZM1372.01 251.518H1402.53V282.036H1372.01V251.518ZM1463.45 343.073H1493.97V373.591H1463.45V343.073ZM1463.45 312.555H1493.97V343.073H1463.45V312.555ZM1463.45 282.036H1493.97V312.555H1463.45V282.036ZM1463.45 251.518H1493.97V282.036H1463.45V251.518ZM1493.97 251.518H1524.48V282.036H1493.97V251.518ZM1524.48 282.036H1555V312.555H1524.48V282.036ZM1524.48 312.555H1555V343.073H1524.48V312.555ZM1524.48 343.073H1555V373.591H1524.48V343.073ZM30.5183 563.073H61.0366V593.591H30.5183V563.073ZM61.0366 563.073H91.5549V593.591H61.0366V563.073ZM91.5549 563.073H122.073V593.591H91.5549V563.073ZM91.5549 441H122.073V471.518H91.5549V441ZM61.0366 441H91.5549V471.518H61.0366V441ZM30.5183 441H61.0366V471.518H30.5183V441ZM30.5183 502.036H61.0366V532.555H30.5183V502.036ZM61.0366 502.036H91.5549V532.555H61.0366V502.036ZM0 471.518H30.5183V502.036H0V471.518ZM0 532.555H30.5183V563.073H0V532.555ZM61.0366 410.482H91.5549V441H61.0366V410.482ZM61.0366 471.518H91.5549V502.036H61.0366V471.518ZM61.0366 532.555H91.5549V563.073H61.0366V532.555ZM91.5549 502.036H122.073V532.555H91.5549V502.036ZM61.0366 593.591H91.5549V624.11H61.0366V593.591ZM122.073 563.073H152.591V593.591H122.073V563.073ZM122.073 441H152.591V471.518H122.073V441ZM335.761 471.518H366.279V502.036H335.761V471.518ZM335.761 502.036H366.279V532.555H335.761V502.036ZM335.761 532.555H366.279V563.073H335.761V532.555ZM335.761 563.073H366.279V593.591H335.761V563.073ZM305.242 471.518H335.761V502.036H305.242V471.518ZM305.242 563.073H335.761V593.591H305.242V563.073ZM274.724 502.036H305.242V532.555H274.724V502.036ZM274.724 532.555H305.242V563.073H274.724V532.555ZM396.678 563.073H427.196V593.591H396.678V563.073ZM396.678 532.555H427.196V563.073H396.678V532.555ZM396.678 502.036H427.196V532.555H396.678V502.036ZM396.678 471.518H427.196V502.036H396.678V471.518ZM427.196 471.518H457.715V502.036H427.196V471.518ZM457.715 502.036H488.233V532.555H457.715V502.036ZM457.715 532.555H488.233V563.073H457.715V532.555ZM457.715 563.073H488.233V593.591H457.715V563.073ZM579.669 471.518H610.187V502.036H579.669V471.518ZM579.669 502.036H610.187V532.555H579.669V502.036ZM579.669 532.555H610.187V563.073H579.669V532.555ZM579.669 563.073H610.187V593.591H579.669V563.073ZM549.15 471.518H579.669V502.036H549.15V471.518ZM549.15 563.073H579.669V593.591H549.15V563.073ZM518.632 502.036H549.15V532.555H518.632V502.036ZM518.632 532.555H549.15V563.073H518.632V532.555ZM640.586 441H671.104V471.518H640.586V441ZM640.586 471.518H671.104V502.036H640.586V471.518ZM640.586 502.036H671.104V532.555H640.586V502.036ZM640.586 532.555H671.104V563.073H640.586V532.555ZM640.586 563.073H671.104V593.591H640.586V563.073ZM701.563 471.518H732.081V502.036H701.563V471.518ZM701.563 502.036H732.081V532.555H701.563V502.036ZM701.563 532.555H732.081V563.073H701.563V532.555ZM762.6 471.518H793.118V502.036H762.6V471.518ZM762.6 502.036H793.118V532.555H762.6V502.036ZM762.6 532.555H793.118V563.073H762.6V532.555ZM732.081 563.073H762.6V593.591H732.081V563.073ZM701.563 593.591H732.081V624.11H701.563V593.591ZM884.553 471.518H915.072V502.036H884.553V471.518ZM854.035 471.518H884.553V502.036H854.035V471.518ZM823.517 502.036H854.035V532.555H823.517V502.036ZM884.553 532.555H915.072V563.073H884.553V532.555ZM884.553 563.073H915.072V593.591H884.553V563.073ZM823.517 563.073H854.035V593.591H823.517V563.073ZM823.517 471.518H854.035V502.036H823.517V471.518ZM854.035 563.073H884.553V593.591H854.035V563.073ZM945.471 563.073H975.989V593.591H945.471V563.073ZM945.471 532.555H975.989V563.073H945.471V532.555ZM945.471 502.036H975.989V532.555H945.471V502.036ZM945.471 441H975.989V471.518H945.471V441ZM1067.48 471.518H1098V502.036H1067.48V471.518ZM1036.97 471.518H1067.48V502.036H1036.97V471.518ZM1006.45 502.036H1036.97V532.555H1006.45V502.036ZM1067.48 532.555H1098V563.073H1067.48V532.555ZM1067.48 563.073H1098V593.591H1067.48V563.073ZM1006.45 563.073H1036.97V593.591H1006.45V563.073ZM1006.45 471.518H1036.97V502.036H1006.45V471.518ZM1036.97 563.073H1067.48V593.591H1036.97V563.073Z" fill="white"/>
</svg>
